<svg id="Layer_1" enable-background="new 0 0 512 512" height="512" viewBox="0 0 512 512" width="512" xmlns="http://www.w3.org/2000/svg"><path d="m511.496 365.717c-2.914-29.978-18.264-57.261-43.222-76.824-9.626-7.545-20.558-13.851-32.613-18.873v-135.166c0-2.858-1.524-5.499-4-6.928l-209.83-121.145c-2.475-1.429-5.525-1.429-8 0l-209.83 121.145c-2.476 1.429-4 4.07-4 6.928v242.291c0 2.858 1.524 5.499 4 6.928l209.83 121.145c1.237.714 2.619 1.072 4 1.072s2.763-.357 4-1.072l209.83-121.145c1.645-.95 2.856-2.44 3.493-4.168 5.458 7.042 9.238 14.936 11.023 23.256 6.598 30.738-13.282 60.623-51.881 77.992-3.706 1.668-5.573 5.85-4.34 9.723 1.073 3.37 4.196 5.574 7.617 5.573.511 0 1.028-.049 1.546-.151 37.033-7.267 67.343-24.495 87.652-49.822 18.736-23.361 27.516-52.042 24.725-80.759zm-293.665-118.955-58.49-33.769 193.83-111.908 58.49 33.769zm-119.341-68.901 193.83-111.908 44.851 25.895-193.83 111.908zm36.852 39.751-.001 76.934-44.85-25.894-.001-76.935zm82.489-194.665 58.489 33.769-193.83 111.907-58.489-33.769zm-201.83 125.764 58.489 33.769.001 90.791c0 2.858 1.524 5.499 4 6.928l60.85 35.131c1.237.714 2.619 1.072 4 1.072s2.763-.357 4-1.072c2.476-1.429 4-4.07 4-6.928l.001-81.552 58.489 33.769v223.816l-193.83-111.908zm209.83 335.723v-223.815l193.83-111.908v115.597c-16.639-5.019-35.004-7.89-54.733-8.498v-25.873c0-3.107-1.799-5.934-4.614-7.248-2.816-1.315-6.139-.881-8.521 1.113l-92.489 77.41c-1.885 1.578-2.939 3.934-2.861 6.391.079 2.457 1.282 4.741 3.264 6.194l92.489 67.855c2.432 1.784 5.659 2.049 8.348.686 2.689-1.362 4.385-4.121 4.385-7.136v-26.896c21.185 1.138 39.795 6.837 54.196 16.654.183.125.356.257.537.383v7.184zm221.106-23.515c1.977-2.582 3.785-5.235 5.423-7.957 10.064-16.727 13.336-35.109 9.462-53.158-4.07-18.963-16.033-36.033-33.686-48.066-18.855-12.852-43.479-19.646-71.208-19.646-4.418 0-8 3.582-8 8v19.317l-71.53-52.479 71.53-59.867v16.623c0 4.418 3.582 8 8 8 95.478 0 134.358 51.486 138.644 95.576 3.139 32.311-11.576 69.954-48.635 93.657z"/></svg>