<svg height="512" viewBox="0 0 32 32" width="512" xmlns="http://www.w3.org/2000/svg"><g id="Layer_2" data-name="Layer 2"><path d="m11.5 31a3.5 3.5 0 1 1 3.5-3.5 3.5 3.5 0 0 1 -3.5 3.5zm0-5a1.5 1.5 0 1 0 1.5 1.5 1.5 1.5 0 0 0 -1.5-1.5z"/><path d="m22.5 31a3.5 3.5 0 1 1 3.5-3.5 3.5 3.5 0 0 1 -3.5 3.5zm0-5a1.5 1.5 0 1 0 1.5 1.5 1.5 1.5 0 0 0 -1.5-1.5z"/><path d="m23.5 26h-15a3.5 3.5 0 0 1 0-7h13.5a1 1 0 0 1 0 2h-13.5a1.5 1.5 0 0 0 0 3h15a1 1 0 0 1 0 2z"/><path d="m23.59 21h-13.59a1 1 0 0 1 -.976-.783l-3.824-17.217h-3.2a1 1 0 0 1 0-2h3.2a1.987 1.987 0 0 1 1.95 1.566l3.65 16.434h12.79a1 1 0 0 0 .942-.664l4.526-12.672a1 1 0 0 1 1.884.672l-4.526 12.673a3.006 3.006 0 0 1 -2.826 1.991z"/><path d="m18 16.34c-1.058 0-2.928-1.575-5.559-4.684a4.494 4.494 0 0 1 .059-5.914 3.918 3.918 0 0 1 5.411 0l.089.092.092-.093a3.918 3.918 0 0 1 5.411 0 4.511 4.511 0 0 1 0 5.975c-2.575 3.049-4.445 4.624-5.503 4.624zm-2.8-9.719a1.815 1.815 0 0 0 -1.291.535 2.6 2.6 0 0 0 0 3.147 22.471 22.471 0 0 0 4.091 4.008 22.523 22.523 0 0 0 4.033-3.947 2.614 2.614 0 0 0 .056-3.208 1.868 1.868 0 0 0 -2.583 0l-.8.8a1 1 0 0 1 -1.414 0l-.8-.8a1.817 1.817 0 0 0 -1.292-.535z"/></g></svg>